HIERARCHY
ROOT Hips
{
	OFFSET 0.000000 8.830580 0.000000
	CHANNELS 6 Xposition Yposition Zposition Zrotation Yrotation Xrotation 
	JOINT Spine
	{
		OFFSET 0.000000 0.010000 0.000000
		CHANNELS 3 Zrotation Yrotation Xrotation
		JOINT Spine1
		{
			OFFSET 0.000000 2.459130 0.000000
			CHANNELS 3 Zrotation Yrotation Xrotation
			JOINT Neck
			{
				OFFSET 0.000000 2.484630 0.000000
				CHANNELS 3 Zrotation Yrotation Xrotation
				JOINT Head_virtual
				{
					OFFSET 0.000000 0.000000 0.000000
					CHANNELS 3 Zrotation Yrotation Xrotation
					JOINT Head
					{
						OFFSET 0.000000 0.927525 0.000000
						CHANNELS 3 Zrotation Yrotation Xrotation
						End Site
						{
							OFFSET 0.000000 0.000000 0.000000
						}
					}
				}
				JOINT LeftUpArm_virtual
				{
					OFFSET 0.000000 0.000000 0.000000
					CHANNELS 3 Zrotation Yrotation Xrotation
					JOINT LeftUpArm
					{
						OFFSET 1.248820 0.000000 0.000000
						CHANNELS 3 Zrotation Yrotation Xrotation
						JOINT LeftForeArm
						{
							OFFSET 2.597580 0.000000 0.000000
							CHANNELS 3 Zrotation Yrotation Xrotation
							JOINT LeftHand
							{
								OFFSET 2.455420 0.000000 0.000000
								CHANNELS 3 Zrotation Yrotation Xrotation
								End Site
								{
									OFFSET 0.000000 0.000000 0.000000
								}
							}
						}
					}
				}
				JOINT RightUpArm_virtual
				{
					OFFSET -0.000000 -0.000000 -0.000000
					CHANNELS 3 Zrotation Yrotation Xrotation
					JOINT RightUpArm
					{
						OFFSET -1.248820 -0.000000 -0.000000
						CHANNELS 3 Zrotation Yrotation Xrotation
						JOINT RightForeArm
						{
							OFFSET -2.597580 -0.000000 -0.000000
							CHANNELS 3 Zrotation Yrotation Xrotation
							JOINT RightHand
							{
								OFFSET -2.455420 -0.000000 -0.000000
								CHANNELS 3 Zrotation Yrotation Xrotation
								End Site
								{
									OFFSET 0.000000 0.000000 0.000000
								}
							}
						}
					}
				}
			}
		}
	}
	JOINT LeftUpLeg
	{
		OFFSET 1.271939 0.000000 0.000000
		CHANNELS 3 Zrotation Yrotation Xrotation
		JOINT LeftLowLeg
		{
			OFFSET 0.000000 -4.342910 0.000000
			CHANNELS 3 Zrotation Yrotation Xrotation
			JOINT LeftFoot
			{
				OFFSET 0.000000 -4.487670 0.000000
				CHANNELS 3 Zrotation Yrotation Xrotation
				JOINT LeftToeBase
				{
					OFFSET 0.000000 0.000000 1.515070
					CHANNELS 3 Zrotation Yrotation Xrotation
					End Site
					{
						OFFSET 0.000000 0.000000 0.000000
					}
				}
			}
		}
	}
	JOINT RightUpLeg
	{
		OFFSET -1.271939 0.000000 0.000000
		CHANNELS 3 Zrotation Yrotation Xrotation
		JOINT RightLowLeg
		{
			OFFSET 0.000000 -4.342910 0.000000
			CHANNELS 3 Zrotation Yrotation Xrotation
			JOINT RightFoot
			{
				OFFSET 0.000000 -4.487670 0.000000
				CHANNELS 3 Zrotation Yrotation Xrotation
				JOINT RightToeBase
				{
					OFFSET 0.000000 0.000000 1.515070
					CHANNELS 3 Zrotation Yrotation Xrotation
					End Site
					{
						OFFSET 0.000000 0.000000 0.000000
					}
				}
			}
		}
	}
}
MOTION
Frames: 16
Frame Time: 0.041667
-14.120582 8.999759 43.172922 -170.854126 8.525697 -178.721506 -6.484136 3.633424 -11.192087 16.977995 -4.021555 23.395021 0.000000 0.000000 0.000000 7.152118 19.466387 42.479147 20.513871 -10.306136 -58.865276 -14.754300 6.192690 -19.190701 11.376600 -7.390520 -24.510799 0.000000 -22.463499 0.000000 52.921299 -16.662800 33.595600 24.214600 -2.652630 4.591270 35.203300 -0.130276 8.684830 0.000000 26.244400 0.000000 -4.924270 -0.607234 -0.815375 -8.150355 21.851151 -13.185784 0.000000 0.000000 19.122101 8.890664 14.748967 4.295797 0.000000 0.000000 -11.309540 22.714764 10.523275 0.126826 0.000000 0.000000 7.245090 7.081925 -21.103250 12.565096 0.000000 0.000000 -20.476600 
-14.122384 9.003330 43.178298 -170.751130 8.615904 -178.569009 -6.509099 3.510616 -11.259203 17.097600 -4.076183 23.348048 0.000000 0.000000 0.000000 7.616797 18.719769 42.965708 20.121472 -9.700157 -58.446696 -14.736400 6.486050 -19.845699 11.243100 -7.190640 -23.818300 0.000000 -22.445601 0.000000 53.472698 -17.469900 33.071602 24.224701 -2.825340 4.517550 35.520199 -0.070830 8.462070 0.000000 26.167200 0.000000 -6.534330 -0.483945 0.797105 -8.125844 21.773333 -13.165411 0.000000 0.000000 18.720600 9.072787 14.877123 4.465270 0.000000 0.000000 -10.960400 22.738849 10.807926 0.214635 0.000000 0.000000 6.773060 7.336471 -20.997913 12.805501 0.000000 0.000000 -19.549130 
-14.124060 9.005901 43.183951 -170.673107 8.693250 -178.433666 -6.599288 3.374608 -11.459139 17.306701 -4.191729 23.514068 0.000000 0.000000 0.000000 7.929006 18.389213 43.190558 20.257036 -9.317423 -57.980370 -14.898900 6.559470 -19.284000 11.501500 -6.689070 -24.584801 0.000000 -22.322599 0.000000 53.757702 -18.047001 32.644001 24.021400 -2.830610 4.426680 35.905399 0.042429 8.268630 0.000000 26.024300 0.000000 -7.319230 -0.482311 2.852600 -8.156012 21.863100 -13.104601 0.000000 0.000000 18.191999 9.165431 15.015378 4.609923 0.000000 0.000000 -10.927590 22.775200 11.095653 0.298786 0.000000 0.000000 6.341190 7.378889 -21.130255 13.045613 0.000000 0.000000 -19.051360 
-14.126422 9.008035 43.190788 -170.611255 8.805338 -178.311685 -6.585694 3.275330 -11.455165 17.304944 -4.257979 23.436237 0.000000 0.000000 0.000000 8.258265 17.947966 43.602234 20.223390 -8.854374 -57.789811 -14.943500 6.829940 -19.482000 11.442200 -6.433970 -24.800501 0.000000 -22.394699 0.000000 53.985600 -18.245001 32.513401 24.152100 -2.860530 4.419210 35.801300 0.318931 8.702080 0.000000 25.829599 0.000000 -7.814290 -0.162375 3.645470 -8.157755 21.878298 -13.046097 0.000000 0.000000 17.768400 9.253377 15.071837 4.716183 0.000000 0.000000 -10.929840 22.784475 11.249277 0.365872 0.000000 0.000000 5.961460 7.355581 -21.095262 13.284960 0.000000 0.000000 -18.810970 
-14.130218 9.009617 43.198194 -170.549229 8.947179 -178.202546 -6.575603 3.204398 -11.473682 17.451185 -4.260693 23.378233 0.000000 0.000000 0.000000 8.495041 17.590774 43.966813 20.328027 -8.560425 -57.740266 -15.087500 6.858390 -19.366199 11.478500 -6.151520 -25.102900 0.000000 -22.305201 0.000000 54.500999 -17.953199 32.198700 24.135099 -2.860270 4.394850 35.632401 0.536113 9.269080 0.000000 25.775999 0.000000 -7.322280 -0.507587 4.367260 -8.165467 22.004283 -13.047795 0.000000 0.000000 17.493000 9.344524 15.045518 4.783025 0.000000 0.000000 -11.024590 22.792454 11.506317 0.407326 0.000000 0.000000 5.666450 7.372537 -21.126895 13.472839 0.000000 0.000000 -18.687320 
-14.136533 9.010414 43.206280 -170.488988 9.062593 -178.098903 -6.485435 3.207749 -11.529011 17.547558 -4.303631 23.447149 0.000000 0.000000 0.000000 8.631615 17.181897 43.990449 20.168937 -8.451965 -57.521659 -15.079300 6.833510 -19.395800 11.222400 -5.854780 -25.507601 0.000000 -22.216400 0.000000 54.688400 -17.914101 31.981701 24.092699 -2.815830 4.308310 35.396400 0.744980 9.786540 0.000000 25.859600 0.000000 -6.364510 -0.645579 4.933320 -8.201247 22.131030 -13.080190 0.000000 0.000000 17.250401 9.408590 15.040176 4.837797 0.000000 0.000000 -11.175200 22.786519 11.780514 0.405154 0.000000 0.000000 5.462540 7.567778 -21.181815 13.542381 0.000000 0.000000 -18.813920 
-14.145279 9.010324 43.215377 -170.408510 9.180188 -178.045886 -6.315696 3.240031 -11.551719 17.616060 -4.343617 23.477460 0.000000 0.000000 0.000000 8.639272 17.504525 44.025323 20.832619 -8.506962 -57.359548 -15.413700 6.879850 -18.416599 11.490900 -5.785030 -26.672800 0.000000 -21.854700 0.000000 54.755199 -17.554199 31.585199 24.011000 -2.610870 4.383670 35.122200 0.912189 10.143900 0.000000 25.945601 0.000000 -5.155910 -0.828891 4.946420 -8.206446 22.197937 -13.105931 0.000000 0.000000 17.091801 9.483206 15.096949 4.891410 0.000000 0.000000 -11.448990 22.798805 11.991242 0.381222 0.000000 0.000000 5.376260 7.685371 -21.229162 13.567246 0.000000 0.000000 -18.887020 
-14.157109 9.010341 43.224417 -170.311956 9.278002 -178.027853 -6.069400 3.310762 -11.534815 17.739449 -4.392212 23.579522 0.000000 0.000000 0.000000 8.584010 17.487110 43.918467 20.890458 -8.611337 -57.437374 -15.473000 6.819120 -18.430500 11.131500 -5.676890 -26.934799 0.000000 -21.695700 0.000000 54.531101 -17.297800 31.277700 23.950001 -2.459990 4.397070 34.676498 1.083470 10.635700 0.000000 26.220301 0.000000 -4.181560 -1.121040 4.360200 -8.192525 22.193944 -13.076604 0.000000 0.000000 16.906500 9.571313 15.184483 4.968683 0.000000 0.000000 -11.611810 22.810864 11.992894 0.340546 0.000000 0.000000 5.381870 7.794186 -21.119317 13.578654 0.000000 0.000000 -18.835100 
-14.170415 9.010449 43.231117 -170.230928 9.283042 -178.068130 -5.786227 3.392600 -11.535393 17.828951 -4.495976 23.764809 0.000000 0.000000 0.000000 8.500514 17.399140 43.667932 20.771846 -8.770718 -57.433213 -15.478500 6.740860 -18.428301 10.663400 -5.616400 -27.286900 0.000000 -21.538000 0.000000 54.188599 -17.555599 31.446199 23.923800 -2.249390 4.376070 34.158699 1.153860 10.991300 0.000000 26.651100 0.000000 -3.377530 -1.015620 3.968970 -8.163874 22.105537 -13.000859 0.000000 0.000000 16.776100 9.635335 15.241560 5.064375 0.000000 0.000000 -11.861710 22.821954 11.951998 0.337782 0.000000 0.000000 5.389970 7.807302 -21.090230 13.595555 0.000000 0.000000 -18.696300 
-14.185092 9.011019 43.237541 -170.140232 9.239020 -178.143070 -5.483837 3.483049 -11.523477 17.952848 -4.631638 24.048064 0.000000 0.000000 0.000000 8.399569 17.077919 43.268411 20.279498 -8.886869 -57.570210 -15.599900 6.681270 -18.373600 10.362600 -5.723230 -27.243900 0.000000 -21.224701 0.000000 54.368099 -17.305000 31.101900 23.865299 -2.147420 4.240490 33.636299 1.370710 11.365200 0.000000 27.061800 0.000000 -2.900540 -1.090580 3.697360 -8.116588 22.014946 -12.924503 0.000000 0.000000 16.714500 9.655604 15.258776 5.144627 0.000000 0.000000 -12.238750 22.839980 11.918273 0.358709 0.000000 0.000000 5.382860 7.829347 -21.116827 13.630954 0.000000 0.000000 -18.368130 
-14.200198 9.011782 43.243582 -170.035506 9.154369 -178.192842 -5.181577 3.461726 -11.496262 18.122893 -4.757628 24.110421 0.000000 0.000000 0.000000 8.258678 17.454905 43.146317 20.736210 -9.070503 -57.726642 -15.705300 6.540050 -18.270300 10.086000 -5.670660 -27.046101 0.000000 -20.950701 0.000000 54.395302 -17.461901 31.016300 23.794201 -1.915460 4.351970 33.088600 1.585010 11.486000 0.000000 27.362200 0.000000 -2.719670 -0.891179 3.188020 -8.074788 21.989075 -12.865819 0.000000 0.000000 16.632799 9.683247 15.182360 5.217753 0.000000 0.000000 -12.788940 22.873826 12.041946 0.377826 0.000000 0.000000 5.304280 7.754004 -21.317216 13.713898 0.000000 0.000000 -17.815980 
-14.215255 9.012070 43.248006 -169.923471 9.038926 -178.231429 -4.890009 3.424271 -11.481377 18.308527 -4.887795 24.168166 0.000000 0.000000 0.000000 8.195535 17.299035 42.908392 20.541935 -9.158882 -57.799462 -15.788500 6.465410 -18.278601 9.788110 -5.705460 -26.784000 0.000000 -20.757500 0.000000 54.427399 -17.540600 30.823500 23.722300 -1.786930 4.343070 32.550098 1.856290 11.748000 0.000000 27.701000 0.000000 -3.024870 -0.939042 3.017050 -8.045724 22.102644 -12.797248 0.000000 0.000000 16.520500 9.728926 14.976120 5.238775 0.000000 0.000000 -13.490690 22.906013 12.108766 0.432435 0.000000 0.000000 5.162580 7.769006 -21.435120 13.776140 0.000000 0.000000 -17.302470 
-14.230796 9.013067 43.250692 -169.829743 8.862836 -178.246282 -4.622881 3.340014 -11.512423 18.463921 -5.040015 24.172492 0.000000 0.000000 0.000000 8.158275 17.409297 42.749610 20.727954 -9.175113 -57.802577 -15.869300 6.333160 -18.122499 9.584990 -5.615360 -26.684500 0.000000 -20.735600 0.000000 54.311699 -17.563499 30.650600 23.656300 -1.698710 4.364480 32.020699 2.216660 11.939000 0.000000 27.996500 0.000000 -3.441050 -0.965246 2.773200 -8.045750 22.147298 -12.685755 0.000000 0.000000 16.284500 9.756227 14.744581 5.303748 0.000000 0.000000 -14.289944 22.908237 12.260465 0.489911 0.000000 0.000000 4.962580 7.898592 -21.627372 13.790635 0.000000 0.000000 -17.004220 
-14.247135 9.014565 43.251664 -169.710695 8.664770 -178.225211 -4.323971 3.274149 -11.602201 18.565988 -5.216474 24.187844 0.000000 0.000000 0.000000 8.194785 17.250227 42.594236 20.723035 -9.071189 -57.834857 -15.861800 6.205120 -18.134300 9.324080 -5.505210 -26.483400 0.000000 -20.837400 0.000000 54.333500 -17.358200 30.785500 23.637400 -1.630190 4.224220 31.494699 2.527340 12.183200 0.000000 28.289200 0.000000 -4.255280 -0.542463 2.736800 -8.031165 22.118189 -12.548875 0.000000 0.000000 15.970300 9.758531 14.591516 5.340497 0.000000 0.000000 -15.014818 22.918064 12.415374 0.584472 0.000000 0.000000 4.637330 8.042209 -21.841199 13.858947 0.000000 0.000000 -16.979810 
-14.263192 9.016057 43.253760 -169.591835 8.552031 -178.168251 -4.068787 3.174618 -11.655838 18.735427 -5.328884 24.090575 0.000000 0.000000 0.000000 8.261539 16.998401 42.436849 20.613138 -8.982947 -57.715368 -15.875300 6.112090 -18.247499 9.075010 -5.352370 -26.151699 0.000000 -20.987499 0.000000 54.326500 -17.409201 30.766500 23.563101 -1.572980 4.235240 31.017300 2.946430 12.225600 0.000000 28.552299 0.000000 -5.329870 0.376994 2.137490 -8.035299 22.185356 -12.452117 0.000000 0.000000 15.651800 9.656065 14.411578 5.332688 0.000000 0.000000 -15.477459 22.921247 12.683847 0.675595 0.000000 0.000000 4.294730 8.225965 -22.079483 13.916303 0.000000 0.000000 -17.174670 
-14.280189 9.016938 43.254512 -169.492188 8.455187 -178.041683 -3.809685 3.105377 -11.800577 18.858860 -5.414911 23.948313 0.000000 0.000000 0.000000 8.358897 16.787562 42.364419 20.729864 -8.839970 -57.666579 -15.910300 6.077940 -18.132099 8.929920 -5.320140 -25.962299 0.000000 -21.071899 0.000000 54.370602 -17.387800 30.749300 23.529499 -1.533710 4.279020 30.535601 3.348850 12.167000 0.000000 28.860600 0.000000 -6.130730 0.557934 2.362570 -8.089259 22.270595 -12.426846 0.000000 0.000000 15.333900 9.649280 14.204893 5.349417 0.000000 0.000000 -15.826503 22.896290 13.112596 0.684474 0.000000 0.000000 4.015220 8.549788 -22.449360 13.857552 0.000000 0.000000 -17.596090 
